HIERARCHY
ROOT Hips
{
  OFFSET 0.713205 96.6049 68.1984
  CHANNELS 6 Xposition Yposition Zposition Zrotation Xrotation Yrotation
  JOINT RightUpLeg
  {
    OFFSET -8.9458 -8.66707 0.101652
    CHANNELS 3 Zrotation Xrotation Yrotation
    JOINT RightLeg
    {
      OFFSET 0 -44.4227 1.3727
      CHANNELS 3 Zrotation Xrotation Yrotation
      JOINT RightFoot
      {
        OFFSET 0.253549 -42.0924 -1.46059
        CHANNELS 3 Zrotation Xrotation Yrotation
        JOINT RightToes
        {
          OFFSET 0.04 -4.41509 8.4991
          CHANNELS 3 Zrotation Xrotation Yrotation
          End Site
          {
            OFFSET -0.08 -0.137448 9.77979
          }
        }
      }
    }
  }
  JOINT Spine
  {
    OFFSET 0 11.8905 0
    CHANNELS 3 Zrotation Xrotation Yrotation
    JOINT Spine1
    {
      OFFSET 0 25.6574 0.127663
      CHANNELS 3 Zrotation Xrotation Yrotation
      JOINT HEad
      {
        OFFSET 0 8.73416 0.011341
        CHANNELS 3 Zrotation Xrotation Yrotation
        End Site
        {
          OFFSET -0.29 12.7742 2.51395
        }
      }
      JOINT LeftShoulder1
      {
        OFFSET 8.99 -0.362252 -0.22
        CHANNELS 3 Zrotation Xrotation Yrotation
        JOINT LeftArm
        {
          OFFSET 10.2827 -0.00338 0.322123
          CHANNELS 3 Zrotation Xrotation Yrotation
          JOINT LeftForeArm
          {
            OFFSET 32.7669 0.099144 -1.42434
            CHANNELS 3 Zrotation Xrotation Yrotation
            JOINT LeftHand
            {
              OFFSET 27.5643 0.085362 1.02216
              CHANNELS 3 Zrotation Xrotation Yrotation
              End Site
              {
                OFFSET 16.7443 -0.6 1.50291
              }
            }
          }
        }
      }
      JOINT RightShoulder
      {
        OFFSET -8.99 -0.362252 -0.22
        CHANNELS 3 Zrotation Xrotation Yrotation
        JOINT RightArm
        {
          OFFSET -10.2827 -0.00338 0.322123
          CHANNELS 3 Zrotation Xrotation Yrotation
          JOINT RightForeArm
          {
            OFFSET -32.8971 0.099144 -1.42434
            CHANNELS 3 Zrotation Xrotation Yrotation
            JOINT RightHand
            {
              OFFSET -27.4921 0.085362 1.02216
              CHANNELS 3 Zrotation Xrotation Yrotation
              End Site
              {
                OFFSET -16.6312 -0.6 1.50291
              }
            }
          }
        }
      }
    }
  }
  JOINT LeftUpLeg
  {
    OFFSET 8.9458 -8.66707 0.101652
    CHANNELS 3 Zrotation Xrotation Yrotation
    JOINT LeftLeg
    {
      OFFSET 0 -44.4227 1.3727
      CHANNELS 3 Zrotation Xrotation Yrotation
      JOINT LeftFoot
      {
        OFFSET -0.253549 -42.0924 -1.46059
        CHANNELS 3 Zrotation Xrotation Yrotation
        JOINT LeftToes
        {
          OFFSET -0.04 -4.41509 8.4991
          CHANNELS 3 Zrotation Xrotation Yrotation
          End Site
          {
            OFFSET 0.08 -0.047448 9.77979
          }
        }
      }
    }
  }
}
MOTION
Frames:	11
Frame Time:	0.0166667
-25.4571 95.5338 76.2172 -1.38011 4.75072 -90.1853 -20.192 -22.4796 -0.861682 14.6089 29.9756 -13.304 26.9066 27.6476 -8.35489 -37.3233 -33.1443 1.00489 -0.340608 8.31786 -6.3696 -2.7419 16.5374 -12.2053 17.7536 -2.30156 -18.9662 7.95139e-016 -5.96354e-015 3.18055e-015 -73.0563 -12.0891 -85.411 10.9974 35.9683 -110.382 1.01127 9.91575 12.5686 40.0861 -6.02911 -16.591 39.5421 -42.1039 29.1038 -17.8541 2.52997 155.802 45.21 -7.10932 -42.8023 27.0998 0.769795 -7.1896 -18.2445 26.2226 26.8359 10.7088 21.7459 -2.89375 52.7911 -43.9819 35.1503 
-25.8421 95.1752 77.4431 -1.31708 5.87473 -90.5445 -17.9151 -21.4619 -1.01682 12.5582 29.3019 -10.9159 28.3571 27.7375 -8.84697 -40.4228 -35.3149 -0.0628441 -0.783153 8.52188 -6.83246 -2.37715 17.0339 -13.324 19.3276 -3.36402 -18.3525 0 1.19271e-015 -0 -73.25 -9.42598 -89.1406 10.6041 37.7878 -105.925 0.825158 9.90195 11.8912 39.0301 -5.53648 -15.7782 43.1945 -43.264 30.2823 -18.4464 4.08731 155.217 44.6011 -6.76995 -42.622 25.9858 1.86099 -7.93145 -16.175 25.3531 30.7797 14.4148 19.9371 -3.6128 52.6013 -43.8418 35.1319 
-26.4314 94.9872 78.7081 -1.14333 6.48286 -90.7062 -16.4417 -19.8312 0.361524 11.2077 27.4228 -10.172 27.1916 25.7904 -8.00457 -39.3718 -34.1936 -0.400622 -1.12355 8.54553 -7.11452 -2.20454 17.1434 -14.0696 20.198 -3.93694 -18.5116 -2.38542e-015 -3.97569e-016 3.18055e-015 -72.8714 -6.79206 -91.1535 11.0861 38.6821 -103.322 0.42266 9.87556 11.9383 38.3103 -5.2535 -15.3284 45.8835 -44.7161 31.3321 -18.6537 4.86304 155.232 44.0359 -6.4159 -42.3638 24.8229 3.03204 -8.19491 -14.4714 24.2427 34.171 17.5343 19.5045 -4.30673 54.2101 -44.5408 36.0601 
-27.2011 95.0421 80.0214 -0.75777 6.3963 -90.8675 -16.2648 -18.2845 3.19013 11.2959 25.3767 -10.8586 23.7544 20.7087 -5.91788 -32.489 -28.7868 0.949428 -1.32858 8.35794 -7.1893 -2.44656 16.8036 -14.3158 20.227 -3.95921 -19.2263 2.38542e-015 1.98785e-015 -0 -72.0709 -4.39348 -91.4773 12.6028 38.6379 -103.033 -0.250124 9.8235 12.8693 38.0759 -5.21276 -15.3067 47.3267 -45.9141 31.7376 -18.5237 4.54713 155.774 43.5873 -6.10226 -42.0812 23.56 3.97207 -7.91179 -13.5148 23.1294 35.4609 18.7434 20.3432 -4.74332 57.3646 -45.5796 38.2928 
-28.0688 95.3817 81.3944 -0.165782 5.68167 -91.1607 -17.2688 -17.1441 6.72692 12.3309 23.603 -12.0414 19.7576 12.9852 -3.61176 -21.4054 -19.4364 2.51748 -1.40235 8.03218 -7.07416 -3.13777 16.1607 -14.0117 19.5311 -3.72784 -20.1386 -6.36111e-015 3.97569e-016 3.18055e-015 -70.8054 -2.39556 -90.3694 14.9203 37.5499 -104.852 -1.22416 9.723 14.5646 38.2492 -5.35829 -15.6105 47.6226 -46.5483 31.1663 -18.1515 3.14212 156.684 43.2303 -5.86838 -41.8848 22.2729 4.35087 -7.10951 -13.4718 22.501 33.8605 17.1556 22.3986 -4.67105 61.9583 -46.7451 41.8058 
-28.9198 95.96 82.8378 0.514651 4.63924 -91.6589 -18.8009 -16.4357 9.36482 12.7084 22.0384 -12.4659 17.346 6.36633 -2.21212 -11.2715 -10.225 2.43503 -1.4931 7.69733 -6.76325 -4.10006 15.4814 -13.2109 18.3995 -3.68147 -20.9401 1.59028e-015 -3.57812e-015 6.36111e-015 -68.8567 -0.877421 -88.1689 17.5714 35.2185 -108.063 -2.42563 9.55995 16.6338 38.5256 -5.54048 -15.9655 47.2567 -46.7169 29.5463 -17.6062 1.09833 157.796 42.8531 -5.70776 -41.8636 21.2202 3.91258 -5.93545 -14.267 22.947 29.5191 12.2971 25.4665 -3.73193 67.9594 -48.1731 46.1073 
-29.6832 96.7218 84.3388 1.14913 3.74115 -92.3246 -19.843 -16.2297 9.55235 10.951 20.9303 -10.6081 17.599 5.05164 -2.0507 -6.57504 -5.91497 1.80483 -1.45219 7.49408 -6.30077 -5.00841 15.0153 -12.0455 17.1257 -4.11072 -21.5196 -3.18055e-015 -3.97569e-016 -6.36111e-015 -66.0911 0.258897 -85.2343 20.0409 31.6339 -111.678 -3.61203 9.36056 18.5584 38.4834 -5.5597 -16.0281 46.7814 -46.8232 26.9776 -16.9138 -0.779961 158.912 42.1518 -5.52808 -42.0883 20.8393 2.70174 -4.69236 -15.6352 24.4746 23.1832 4.5153 29.2199 -1.64713 74.4716 -50.1027 49.8444 
-30.348 97.5603 85.8244 1.65915 3.24826 -93.04 -19.7482 -16.4395 7.04831 6.854 20.2005 -5.86504 20.2959 9.83372 -3.17288 -8.67781 -7.87025 2.3784 -1.24974 7.46952 -5.73547 -5.62974 14.8737 -10.6814 15.9323 -5.07117 -21.9855 -4.77083e-015 4.37326e-015 3.18055e-015 -62.7663 1.27271 -82 21.9082 27.3313 -114.785 -4.47365 9.1906 19.9507 37.8446 -5.29724 -15.5991 46.427 -47.2093 23.6996 -16.1255 -1.68016 159.745 40.5702 -5.12521 -42.6186 21.2931 0.895061 -3.67339 -17.2101 26.7611 15.8081 -4.78287 33.2165 1.49566 78.7632 -52.6993 50.4952 
-30.963 98.359 87.1514 2.02627 3.0692 -93.6303 -18.6841 -16.6578 3.33754 1.82634 19.21 0.178152 24.3005 17.4306 -5.37551 -15.3573 -14.2969 4.01529 -1.17286 7.57308 -5.11009 -5.9435 15.0341 -9.28844 15.0066 -6.48139 -22.5343 -1.59028e-015 -2.78299e-015 -0 -59.5374 2.3455 -78.9921 22.913 23.3686 -116.893 -4.81912 9.10708 20.7003 36.6852 -4.82096 -14.7803 46.077 -48.0583 20.1627 -15.3254 -1.03669 159.99 37.6585 -4.24402 -43.3196 22.3408 -1.32181 -3.06155 -18.5669 29.4294 8.37414 -13.7308 36.9394 5.1624 77.7661 -55.6351 45.9136 
-31.5731 99.0598 88.2374 2.2654 3.05798 -93.9198 -17.2133 -16.8247 0.753932 -1.93095 18.6658 5.10495 27.538 23.1662 -7.48058 -22.697 -21.6674 5.51679 -1.29499 7.76214 -4.46706 -6.07174 15.4309 -8.00508 14.5485 -8.19291 -23.2893 -0 -7.95139e-016 -0 -57.0003 3.39423 -76.6541 22.9924 20.7232 -117.976 -4.67827 9.11765 20.9001 35.4461 -4.34741 -13.9392 45.4859 -49.5958 16.9668 -14.5656 1.44454 159.462 33.5756 -2.75709 -43.7002 23.6799 -3.74958 -2.95526 -19.2492 31.9897 2.08721 -20.7428 39.9769 8.53166 73.526 -57.8409 38.9698 
-32.1375 99.6729 89.1974 2.39268 3.13789 -93.7459 -15.9462 -16.8966 0.871764 -2.9355 19.3802 7.25024 28.6015 25.275 -8.30812 -28.2977 -27.3079 6.15995 -1.38152 8.0236 -3.90733 -6.18824 15.9858 -6.91269 14.6937 -9.97184 -24.248 -6.62086e-032 1.19271e-015 3.18055e-015 -55.2921 4.20869 -75.1295 22.3002 19.6876 -118.246 -4.24194 9.18947 20.6969 34.6424 -4.06706 -13.4342 44.467 -51.9105 14.5979 -13.9 5.54865 158.149 29.1402 -0.886921 -43.258 25.0489 -6.20176 -3.35042 -18.8972 33.7348 -1.66483 -24.4188 42.4404 10.6794 72.3578 -59.201 36.0502 
